<svg version="1.1" id="Layer_1" xmlns="http://www.w3.org/2000/svg" xmlns:xlink="http://www.w3.org/1999/xlink" x="0px" y="0px"
	 width="100%" viewBox="0 0 1020 1018" enable-background="new 0 0 1020 1018" xml:space="preserve">
<path fill="#202020" opacity="1.000000" stroke="none" 
	d="
M1021.000000,362.000000 
	C1021.000000,581.333313 1021.000000,800.166687 1021.000000,1019.000000 
	C681.000000,1019.000000 341.000000,1019.000000 1.000000,1019.000000 
	C1.000000,679.666687 1.000000,340.333344 1.000000,1.000000 
	C341.000000,1.000000 681.000000,1.000000 1021.000000,1.000000 
	C1021.000000,121.166664 1021.000000,241.333328 1021.000000,362.000000 
M664.924866,557.712402 
	C665.930420,589.624695 667.646973,621.533875 667.788452,653.450012 
	C668.054688,713.563049 667.599915,773.681702 667.063232,833.794678 
	C666.824219,860.569275 665.703003,887.337097 664.882019,914.104858 
	C664.703918,919.909424 664.437439,925.749817 663.613159,931.487793 
	C662.045410,942.401367 666.949341,952.946472 676.230042,958.675842 
	C686.865845,965.241577 698.698120,966.296509 710.687561,966.764221 
	C711.911987,966.812012 713.182983,965.666321 715.210693,964.925903 
	C716.509277,965.114258 717.807922,965.302551 719.456055,965.663452 
	C719.824829,965.711243 720.193604,965.759033 721.555603,965.818726 
	C731.370361,965.834106 741.185120,965.849487 751.807373,966.072876 
	C765.394043,967.015747 778.832153,966.126282 791.471375,960.764526 
	C803.317017,955.739502 812.088257,947.628540 812.696167,933.726074 
	C814.179688,899.797485 815.593262,865.864197 816.721191,831.922363 
	C817.617126,804.961426 818.483643,777.986816 818.589294,751.015259 
	C818.771423,704.542053 818.686707,658.062012 818.069214,611.593445 
	C817.642395,579.469238 816.597229,547.335754 814.965332,515.250366 
	C813.503845,486.515717 811.664185,457.753204 808.531677,429.162964 
	C804.876282,395.799530 800.402222,362.482727 794.911255,329.373260 
	C785.907043,275.079102 772.530334,221.903961 749.562012,171.567795 
	C736.971375,143.974838 721.516968,118.155563 700.325317,96.241829 
	C665.384338,60.110355 622.368286,45.541626 571.653564,49.344482 
	C562.830383,49.552109 554.007141,49.759735 544.453979,49.522770 
	C535.537292,49.984573 526.603394,50.233894 517.707275,50.950733 
	C496.743530,52.639961 477.005890,58.875027 458.317963,68.262939 
	C436.702850,79.121284 417.994476,93.753464 402.165741,112.193787 
	C384.252716,133.062317 368.265320,155.227402 354.525757,179.048447 
	C334.754700,213.326660 319.451111,249.577316 307.569702,287.224518 
	C299.479950,312.857452 291.842499,338.680695 285.319855,364.748352 
	C277.468872,396.124695 270.971375,427.840881 263.971405,459.428497 
	C259.951050,477.570435 256.096100,495.749084 251.253296,514.104126 
	C246.464218,514.378845 241.675125,514.653503 236.258789,514.434937 
	C228.975372,514.632141 221.614716,514.227051 214.424316,515.149414 
	C198.481201,517.194519 183.180450,521.275208 169.862015,531.061340 
	C158.372299,539.503723 156.355865,553.109009 166.405472,560.365723 
	C172.280823,564.608337 178.772736,568.258667 185.452209,571.071411 
	C199.248047,576.880676 213.991684,578.363708 228.827988,578.754028 
	C230.260651,578.791748 231.720184,577.809265 233.919815,577.219177 
	C234.653839,577.369751 235.387863,577.520325 236.653534,577.832214 
	C237.389679,577.879517 238.125809,577.926819 239.550797,577.902344 
	C239.998917,578.000854 240.447037,578.099365 240.675980,578.908264 
	C240.151230,580.992493 239.421066,583.048706 239.133011,585.165161 
	C235.669983,610.611023 232.023575,636.035461 228.923523,661.526184 
	C225.402740,690.476624 221.981110,719.450562 219.273392,748.484924 
	C216.948013,773.419861 215.657928,798.452148 213.977158,823.445862 
	C213.475922,830.899475 213.558273,838.407898 212.737808,845.820801 
	C211.538574,856.656128 215.302719,865.026245 224.171524,871.060059 
	C235.259552,878.603638 248.016525,879.612549 260.890961,879.797607 
	C262.036530,879.814087 263.197968,878.725342 265.140320,878.095825 
	C276.516388,878.411621 287.892487,878.727417 299.893616,879.466309 
	C314.485718,880.202026 328.981903,879.586304 342.381561,873.120544 
	C354.425537,867.308838 362.055878,858.195740 361.981628,843.846863 
	C361.937744,835.371338 362.517365,826.872864 363.208191,818.416748 
	C366.052155,783.604736 368.834717,748.785339 372.061920,714.007812 
	C374.089600,692.156616 376.614899,670.343018 379.377533,648.570923 
	C382.286041,625.648926 385.828644,602.807922 388.872467,579.902100 
	C389.355499,576.267212 390.833557,575.234009 394.267212,575.048828 
	C410.050049,574.197693 425.822906,573.151672 441.594421,572.102051 
	C476.288177,569.793152 510.982239,567.487061 545.670044,565.090698 
	C575.209839,563.049988 604.743286,560.915222 634.274170,558.748413 
	C640.202209,558.313416 646.105896,557.547180 652.645081,556.967529 
	C653.060059,556.933228 653.475098,556.898987 654.809692,557.040161 
	C658.127563,556.945862 661.445496,556.851562 664.924866,557.712402 
z"/>
<path fill="#D73766" opacity="1.000000" stroke="none" 
	d="
M299.268555,879.043213 
	C287.892487,878.727417 276.516388,878.411621 264.425720,877.884155 
	C262.126068,877.175659 260.522400,876.731079 258.958862,876.173950 
	C244.736923,871.106628 235.314896,863.191833 236.805115,844.556641 
	C237.960068,830.114075 238.158096,815.593567 239.373764,801.157532 
	C242.350250,765.811707 245.159592,730.439087 248.999329,695.182190 
	C252.584488,662.262939 257.400238,629.477539 261.699463,596.636536 
	C262.482758,590.653015 263.386719,584.685364 264.307709,578.197876 
	C255.837128,578.197876 248.366135,578.197876 240.895157,578.197876 
	C240.447037,578.099365 239.998917,578.000854 238.970428,577.779846 
	C237.634003,577.661865 236.877945,577.666382 236.121902,577.670898 
	C235.387863,577.520325 234.653839,577.369751 233.172684,577.153870 
	C228.787979,576.324402 225.132996,575.634155 221.516113,574.782227 
	C210.689270,572.232117 200.684311,567.743225 191.717285,561.205139 
	C182.630981,554.580078 181.064301,544.025513 189.034943,536.248474 
	C194.615265,530.803711 201.581146,526.166748 208.757309,523.124939 
	C217.687256,519.339783 227.471024,517.568970 236.886047,514.928223 
	C241.675125,514.653503 246.464218,514.378845 252.152328,514.099731 
	C259.546478,514.131165 266.053284,514.385742 272.527985,514.039551 
	C274.033783,513.958984 276.405945,512.054993 276.732544,510.616180 
	C282.918213,483.366089 289.007141,456.091888 294.814606,428.758606 
	C306.613037,373.228088 320.204865,318.189911 339.404083,264.680969 
	C359.075470,209.856155 385.934387,159.114105 424.107758,114.672195 
	C450.091248,84.421906 481.853912,63.792625 520.777100,54.603893 
	C528.828857,52.703091 537.044067,51.494823 545.183960,49.967369 
	C554.007141,49.759735 562.830383,49.552109 572.445557,49.568924 
	C583.427429,51.011562 593.869324,51.203312 603.761658,53.632755 
	C639.069458,62.303936 666.656433,82.947937 688.998779,111.035309 
	C710.212463,137.703812 725.252380,167.789627 737.065063,199.573380 
	C751.678162,238.891830 762.467896,279.255157 769.151489,320.665222 
	C773.404236,347.014709 777.609741,373.387451 780.986694,399.858185 
	C784.197693,425.028900 786.750061,450.304932 788.768372,475.600372 
	C790.697388,499.777771 791.962585,524.026062 792.800537,548.268066 
	C793.875488,579.367310 794.606873,610.489136 794.796631,641.605347 
	C795.002747,675.406799 794.486389,709.213684 794.147034,743.016846 
	C793.984985,759.157776 793.576538,775.297363 793.149902,791.434082 
	C792.543152,814.382080 791.840576,837.327576 791.134521,860.272827 
	C790.423523,883.383057 789.486389,906.487793 788.971558,929.602173 
	C788.569092,947.666199 779.331665,955.845947 766.112305,961.084839 
	C761.212891,963.026489 756.045227,964.291443 750.999878,965.864929 
	C741.185120,965.849487 731.370361,965.834106 720.936218,965.663208 
	C719.913391,965.502136 719.509949,965.496521 719.106506,965.490845 
	C717.807922,965.302551 716.509277,965.114258 714.435425,964.899109 
	C712.492920,964.274780 711.381287,963.506226 710.149963,963.105835 
	C695.698669,958.406128 686.614624,948.863708 687.637695,931.634460 
	C689.483215,900.554749 690.979797,869.427979 691.499451,838.302124 
	C692.252930,793.172241 692.399902,748.022949 692.074890,702.887207 
	C691.779846,661.917358 690.479187,620.955200 689.690125,579.988342 
	C689.527527,571.546143 689.666565,563.098083 689.666565,553.968811 
	C680.533325,554.482971 672.782898,554.919250 664.598877,555.278442 
	C660.740234,555.755859 657.315125,556.310303 653.890076,556.864746 
	C653.475098,556.898987 653.060059,556.933228 652.042236,556.689209 
	C641.488831,556.691406 631.520996,556.694702 621.591553,557.314575 
	C604.875000,558.358032 588.184448,559.814819 571.479797,561.055176 
	C561.214844,561.817261 550.935425,562.394836 540.677673,563.240234 
	C518.044067,565.105530 495.433960,567.275146 472.787567,568.962341 
	C455.246704,570.269043 437.664612,571.019165 420.102234,572.040466 
	C403.194550,573.023682 386.291107,574.083557 369.379486,574.991760 
	C366.595581,575.141296 365.222107,575.910339 364.908875,578.970154 
	C364.301544,584.902405 363.183655,590.780823 362.350922,596.691956 
	C360.569336,609.338501 358.728943,621.978088 357.110535,634.645813 
	C355.492493,647.310486 354.137939,660.008545 352.627472,672.687195 
	C350.802917,688.002747 348.646759,703.285339 347.162781,718.633301 
	C345.437256,736.478760 344.284790,754.379639 342.883392,772.256470 
	C340.976196,796.585327 338.494171,820.888184 337.390869,845.253418 
	C336.790985,858.501343 330.426361,866.857178 319.452362,872.196899 
	C313.114563,875.280762 306.021606,876.812744 299.268555,879.043213 
M598.619629,121.362877 
	C598.619629,121.362877 598.320312,121.188286 598.237793,120.584236 
	C596.571777,119.308655 594.905823,118.033081 593.004883,116.999245 
	C593.004883,116.999245 593.234131,116.752487 593.039734,116.132286 
	C591.649353,115.208931 590.258911,114.285583 588.768066,113.213676 
	C588.768066,113.213676 588.591614,113.181198 588.353821,112.585052 
	C581.862854,108.301208 575.156067,104.620132 566.447693,104.802505 
	C566.059082,104.784554 565.670471,104.766602 564.701660,104.291733 
	C559.515259,103.179436 554.525391,103.324730 549.253113,106.735062 
	C547.139465,107.641937 544.856079,108.281456 542.939514,109.498642 
	C529.436035,118.074501 518.444031,129.305710 508.969635,142.095718 
	C492.717529,164.035385 478.909973,187.525558 467.228180,212.100967 
	C455.843445,236.051590 444.976746,260.356903 435.769714,285.205688 
	C425.171661,313.808655 415.703613,342.915100 407.471344,372.286774 
	C398.618469,403.872528 391.579956,435.975739 384.133606,467.942596 
	C380.979370,481.483582 378.804199,495.252655 375.843018,509.460388 
	C377.515747,509.876770 379.215973,510.742828 380.857056,510.642365 
	C407.740723,508.996948 434.618164,507.249329 461.494385,505.483826 
	C486.552246,503.837830 511.609100,502.174042 536.662659,500.463806 
	C573.656006,497.938538 610.647766,495.389618 647.636108,492.792480 
	C655.395081,492.247681 663.136230,491.450134 671.737610,490.830841 
	C673.147461,490.700317 674.557251,490.569794 676.769714,490.761261 
	C684.260071,490.783569 684.525574,490.445129 682.785095,482.403351 
	C682.685852,481.950378 682.586670,481.497406 682.756775,480.191284 
	C682.108215,475.157593 681.459656,470.123901 680.821167,464.309875 
	C680.679871,463.547668 680.538574,462.785492 680.694580,461.186005 
	C680.044739,456.143951 679.394897,451.101898 678.762573,445.370087 
	C678.657593,444.924438 678.552673,444.478821 678.736938,443.190186 
	C678.084717,438.141754 677.432434,433.093292 676.803406,427.274261 
	C676.652649,426.523865 676.501953,425.773468 676.669006,424.236786 
	C676.203003,421.723450 675.737061,419.210144 675.289673,416.123810 
	C675.240112,415.745422 675.190552,415.367035 675.495667,414.424835 
	C675.235962,412.642792 674.976257,410.860748 674.740601,408.378998 
	C674.646973,407.924103 674.553284,407.469208 674.741089,406.191742 
	C674.241333,403.373962 673.741516,400.556152 673.258789,397.145905 
	C673.205139,396.754944 673.151489,396.363983 673.434570,395.445343 
	C673.208435,393.979553 672.982300,392.513763 672.779663,390.369629 
	C672.690430,389.927612 672.601135,389.485596 672.786804,388.210632 
	C672.285217,385.363312 671.783569,382.515961 671.297729,379.108124 
	C671.245605,378.738373 671.193481,378.368591 671.514099,377.387360 
	C670.777222,373.139191 670.040344,368.891022 669.303040,364.082275 
	C669.238342,363.714722 669.173645,363.347168 669.414734,362.546844 
	C669.221497,361.725220 669.028259,360.903595 668.835632,359.298096 
	C668.653381,358.541962 668.471130,357.785858 668.593994,356.256989 
	C667.311157,349.193268 666.028320,342.129578 664.736511,334.360596 
	C664.602966,333.912933 664.469421,333.465302 664.623657,332.262390 
	C663.337036,325.857910 662.050415,319.453461 660.748901,312.346252 
	C660.608765,311.902405 660.468628,311.458527 660.605469,310.250610 
	C658.014282,297.860809 655.423096,285.471008 652.797241,272.364929 
	C652.651428,271.912659 652.505615,271.460388 652.617798,270.305511 
	C652.023987,268.228912 651.430115,266.152313 650.796204,263.353088 
	C650.629150,262.903687 650.462097,262.454285 650.555359,261.270294 
	C649.462280,257.391479 648.369141,253.512650 647.248474,249.064636 
	C647.170593,248.693253 647.092773,248.321869 647.297607,247.378708 
	C645.137146,238.611542 642.976685,229.844360 640.751038,220.359543 
	C640.568359,219.918533 640.385681,219.477524 640.465393,218.323593 
	C638.088013,210.078629 635.710632,201.833679 633.278503,193.036514 
	C633.191650,192.677200 633.104736,192.317886 633.315308,191.411987 
	C628.942322,178.960770 624.994019,166.336884 620.028748,154.126480 
	C617.278381,147.362854 612.827087,141.290833 609.048340,134.948929 
	C609.048340,134.948929 609.113586,134.869217 609.054504,134.178589 
	C606.478333,131.017670 603.902222,127.856758 600.988464,124.852882 
	C600.988464,124.852882 601.314453,124.671768 601.206299,124.067902 
	C600.401123,123.266678 599.595947,122.465454 598.619629,121.362877 
z"/>
<path fill="#E93EF2" opacity="1.000000" stroke="none" 
	d="
M751.403625,965.968872 
	C756.045227,964.291443 761.212891,963.026489 766.112305,961.084839 
	C779.331665,955.845947 788.569092,947.666199 788.971558,929.602173 
	C789.486389,906.487793 790.423523,883.383057 791.134521,860.272827 
	C791.840576,837.327576 792.543152,814.382080 793.149902,791.434082 
	C793.576538,775.297363 793.984985,759.157776 794.147034,743.016846 
	C794.486389,709.213684 795.002747,675.406799 794.796631,641.605347 
	C794.606873,610.489136 793.875488,579.367310 792.800537,548.268066 
	C791.962585,524.026062 790.697388,499.777771 788.768372,475.600372 
	C786.750061,450.304932 784.197693,425.028900 780.986694,399.858185 
	C777.609741,373.387451 773.404236,347.014709 769.151489,320.665222 
	C762.467896,279.255157 751.678162,238.891830 737.065063,199.573380 
	C725.252380,167.789627 710.212463,137.703812 688.998779,111.035309 
	C666.656433,82.947937 639.069458,62.303936 603.761658,53.632755 
	C593.869324,51.203312 583.427429,51.011562 572.946899,49.655727 
	C622.368286,45.541626 665.384338,60.110355 700.325317,96.241829 
	C721.516968,118.155563 736.971375,143.974838 749.562012,171.567795 
	C772.530334,221.903961 785.907043,275.079102 794.911255,329.373260 
	C800.402222,362.482727 804.876282,395.799530 808.531677,429.162964 
	C811.664185,457.753204 813.503845,486.515717 814.965332,515.250366 
	C816.597229,547.335754 817.642395,579.469238 818.069214,611.593445 
	C818.686707,658.062012 818.771423,704.542053 818.589294,751.015259 
	C818.483643,777.986816 817.617126,804.961426 816.721191,831.922363 
	C815.593262,865.864197 814.179688,899.797485 812.696167,933.726074 
	C812.088257,947.628540 803.317017,955.739502 791.471375,960.764526 
	C778.832153,966.126282 765.394043,967.015747 751.403625,965.968872 
z"/>
<path fill="#7AF8FA" opacity="1.000000" stroke="none" 
	d="
M544.818970,49.745071 
	C537.044067,51.494823 528.828857,52.703091 520.777100,54.603893 
	C481.853912,63.792625 450.091248,84.421906 424.107758,114.672195 
	C385.934387,159.114105 359.075470,209.856155 339.404083,264.680969 
	C320.204865,318.189911 306.613037,373.228088 294.814606,428.758606 
	C289.007141,456.091888 282.918213,483.366089 276.732544,510.616180 
	C276.405945,512.054993 274.033783,513.958984 272.527985,514.039551 
	C266.053284,514.385742 259.546478,514.131165 252.609009,514.003296 
	C256.096100,495.749084 259.951050,477.570435 263.971405,459.428497 
	C270.971375,427.840881 277.468872,396.124695 285.319855,364.748352 
	C291.842499,338.680695 299.479950,312.857452 307.569702,287.224518 
	C319.451111,249.577316 334.754700,213.326660 354.525757,179.048447 
	C368.265320,155.227402 384.252716,133.062317 402.165741,112.193787 
	C417.994476,93.753464 436.702850,79.121284 458.317963,68.262939 
	C477.005890,58.875027 496.743530,52.639961 517.707275,50.950733 
	C526.603394,50.233894 535.537292,49.984573 544.818970,49.745071 
z"/>
<path fill="#7AF9FA" opacity="1.000000" stroke="none" 
	d="
M665.032471,555.355530 
	C672.782898,554.919250 680.533325,554.482971 689.666565,553.968811 
	C689.666565,563.098083 689.527527,571.546143 689.690125,579.988342 
	C690.479187,620.955200 691.779846,661.917358 692.074890,702.887207 
	C692.399902,748.022949 692.252930,793.172241 691.499451,838.302124 
	C690.979797,869.427979 689.483215,900.554749 687.637695,931.634460 
	C686.614624,948.863708 695.698669,958.406128 710.149963,963.105835 
	C711.381287,963.506226 712.492920,964.274780 714.046265,964.973389 
	C713.182983,965.666321 711.911987,966.812012 710.687561,966.764221 
	C698.698120,966.296509 686.865845,965.241577 676.230042,958.675842 
	C666.949341,952.946472 662.045410,942.401367 663.613159,931.487793 
	C664.437439,925.749817 664.703918,919.909424 664.882019,914.104858 
	C665.703003,887.337097 666.824219,860.569275 667.063232,833.794678 
	C667.599915,773.681702 668.054688,713.563049 667.788452,653.450012 
	C667.646973,621.533875 665.930420,589.624695 664.912598,557.003418 
	C665.038147,555.994690 665.082214,555.681702 665.032471,555.355530 
z"/>
<path fill="#E840F0" opacity="1.000000" stroke="none" 
	d="
M299.581085,879.254761 
	C306.021606,876.812744 313.114563,875.280762 319.452362,872.196899 
	C330.426361,866.857178 336.790985,858.501343 337.390869,845.253418 
	C338.494171,820.888184 340.976196,796.585327 342.883392,772.256470 
	C344.284790,754.379639 345.437256,736.478760 347.162781,718.633301 
	C348.646759,703.285339 350.802917,688.002747 352.627472,672.687195 
	C354.137939,660.008545 355.492493,647.310486 357.110535,634.645813 
	C358.728943,621.978088 360.569336,609.338501 362.350922,596.691956 
	C363.183655,590.780823 364.301544,584.902405 364.908875,578.970154 
	C365.222107,575.910339 366.595581,575.141296 369.379486,574.991760 
	C386.291107,574.083557 403.194550,573.023682 420.102234,572.040466 
	C437.664612,571.019165 455.246704,570.269043 472.787567,568.962341 
	C495.433960,567.275146 518.044067,565.105530 540.677673,563.240234 
	C550.935425,562.394836 561.214844,561.817261 571.479797,561.055176 
	C588.184448,559.814819 604.875000,558.358032 621.591553,557.314575 
	C631.520996,556.694702 641.488831,556.691406 651.730103,556.672302 
	C646.105896,557.547180 640.202209,558.313416 634.274170,558.748413 
	C604.743286,560.915222 575.209839,563.049988 545.670044,565.090698 
	C510.982239,567.487061 476.288177,569.793152 441.594421,572.102051 
	C425.822906,573.151672 410.050049,574.197693 394.267212,575.048828 
	C390.833557,575.234009 389.355499,576.267212 388.872467,579.902100 
	C385.828644,602.807922 382.286041,625.648926 379.377533,648.570923 
	C376.614899,670.343018 374.089600,692.156616 372.061920,714.007812 
	C368.834717,748.785339 366.052155,783.604736 363.208191,818.416748 
	C362.517365,826.872864 361.937744,835.371338 361.981628,843.846863 
	C362.055878,858.195740 354.425537,867.308838 342.381561,873.120544 
	C328.981903,879.586304 314.485718,880.202026 299.581085,879.254761 
z"/>
<path fill="#79F9FA" opacity="1.000000" stroke="none" 
	d="
M240.785568,578.553101 
	C248.366135,578.197876 255.837128,578.197876 264.307709,578.197876 
	C263.386719,584.685364 262.482758,590.653015 261.699463,596.636536 
	C257.400238,629.477539 252.584488,662.262939 248.999329,695.182190 
	C245.159592,730.439087 242.350250,765.811707 239.373764,801.157532 
	C238.158096,815.593567 237.960068,830.114075 236.805115,844.556641 
	C235.314896,863.191833 244.736923,871.106628 258.958862,876.173950 
	C260.522400,876.731079 262.126068,877.175659 264.031555,877.911133 
	C263.197968,878.725342 262.036530,879.814087 260.890961,879.797607 
	C248.016525,879.612549 235.259552,878.603638 224.171524,871.060059 
	C215.302719,865.026245 211.538574,856.656128 212.737808,845.820801 
	C213.558273,838.407898 213.475922,830.899475 213.977158,823.445862 
	C215.657928,798.452148 216.948013,773.419861 219.273392,748.484924 
	C221.981110,719.450562 225.402740,690.476624 228.923523,661.526184 
	C232.023575,636.035461 235.669983,610.611023 239.133011,585.165161 
	C239.421066,583.048706 240.151230,580.992493 240.785568,578.553101 
z"/>
<path fill="#7EF6F8" opacity="1.000000" stroke="none" 
	d="
M236.572418,514.681580 
	C227.471024,517.568970 217.687256,519.339783 208.757309,523.124939 
	C201.581146,526.166748 194.615265,530.803711 189.034943,536.248474 
	C181.064301,544.025513 182.630981,554.580078 191.717285,561.205139 
	C200.684311,567.743225 210.689270,572.232117 221.516113,574.782227 
	C225.132996,575.634155 228.787979,576.324402 232.796387,577.194458 
	C231.720184,577.809265 230.260651,578.791748 228.827988,578.754028 
	C213.991684,578.363708 199.248047,576.880676 185.452209,571.071411 
	C178.772736,568.258667 172.280823,564.608337 166.405472,560.365723 
	C156.355865,553.109009 158.372299,539.503723 169.862015,531.061340 
	C183.180450,521.275208 198.481201,517.194519 214.424316,515.149414 
	C221.614716,514.227051 228.975372,514.632141 236.572418,514.681580 
z"/>
<path fill="#E840F0" opacity="1.000000" stroke="none" 
	d="
M664.598877,555.278442 
	C665.082214,555.681702 665.038147,555.994690 664.831787,556.525818 
	C661.445496,556.851562 658.127563,556.945862 654.349854,556.952454 
	C657.315125,556.310303 660.740234,555.755859 664.598877,555.278442 
z"/>
<path fill="#7EF6F8" opacity="1.000000" stroke="none" 
	d="
M236.387726,577.751587 
	C236.877945,577.666382 237.634003,577.661865 238.626007,577.815735 
	C238.125809,577.926819 237.389679,577.879517 236.387726,577.751587 
z"/>
<path fill="#7AF9FA" opacity="1.000000" stroke="none" 
	d="
M719.281250,965.577148 
	C719.509949,965.496521 719.913391,965.502136 720.439575,965.657288 
	C720.193604,965.759033 719.824829,965.711243 719.281250,965.577148 
z"/>
<path fill="#E93EF2" opacity="1.000000" stroke="none" 
	d="
M376.183990,508.918060 
	C378.804199,495.252655 380.979370,481.483582 384.133606,467.942596 
	C391.579956,435.975739 398.618469,403.872528 407.471344,372.286774 
	C415.703613,342.915100 425.171661,313.808655 435.769714,285.205688 
	C444.976746,260.356903 455.843445,236.051590 467.228180,212.100967 
	C478.909973,187.525558 492.717529,164.035385 508.969635,142.095718 
	C518.444031,129.305710 529.436035,118.074501 542.939514,109.498642 
	C544.856079,108.281456 547.139465,107.641937 550.006042,106.762947 
	C551.757996,106.903137 552.757019,107.015442 553.787231,107.155350 
	C553.818420,107.182945 553.900330,107.198273 554.004761,107.511070 
	C556.379456,109.798470 558.649719,111.773064 560.631653,113.929688 
	C544.285583,126.277191 532.381592,142.060562 521.577332,158.774414 
	C492.289307,204.081985 470.699951,253.040039 452.914062,303.799133 
	C437.102600,348.923401 424.236542,394.883362 414.054169,441.586823 
	C409.381561,463.018555 405.180634,484.553101 400.413330,506.236572 
	C392.101929,507.260742 384.142944,508.089386 376.183990,508.918060 
z"/>
<path fill="#79F9FA" opacity="1.000000" stroke="none" 
	d="
M669.108887,362.979614 
	C669.173645,363.347168 669.238342,363.714722 669.177917,364.812256 
	C669.748962,369.694427 670.445129,373.846619 671.141357,377.998840 
	C671.193481,378.368591 671.245605,378.738373 671.162598,379.838562 
	C671.522278,383.393829 672.017090,386.218719 672.511902,389.043579 
	C672.601135,389.485596 672.690430,389.927612 672.543213,390.962769 
	C672.570496,393.028290 672.834229,394.500641 673.097900,395.973022 
	C673.151489,396.363983 673.205139,396.754944 673.128845,397.886292 
	C673.485840,401.422546 673.972717,404.218414 674.459595,407.014282 
	C674.553284,407.469208 674.646973,407.924103 674.504150,409.000214 
	C674.558777,411.410492 674.849854,413.199585 675.140991,414.988647 
	C675.190552,415.367035 675.240112,415.745422 675.160278,416.844238 
	C675.471008,420.050781 675.911133,422.536926 676.351196,425.023041 
	C676.501953,425.773468 676.652649,426.523865 676.553711,427.955078 
	C677.018616,433.768311 677.733154,438.900757 678.447693,444.033173 
	C678.552673,444.478821 678.657593,444.924438 678.520935,446.017517 
	C678.985291,451.784393 679.691284,456.903870 680.397339,462.023315 
	C680.538574,462.785492 680.679871,463.547668 680.573608,464.988678 
	C681.046509,470.793121 681.766968,475.918793 682.487427,481.044434 
	C682.586670,481.497406 682.685852,481.950378 682.544067,483.040436 
	C682.062561,485.378113 681.821960,487.078705 681.683350,488.058777 
	C679.332947,489.037567 677.650024,489.738434 675.967102,490.439270 
	C674.557251,490.569794 673.147461,490.700317 671.014648,490.551025 
	C666.583923,489.889404 662.876160,489.507629 659.139893,488.656860 
	C657.427002,472.193817 655.751038,456.198822 654.055908,440.205841 
	C651.678894,417.779236 650.005920,395.248230 646.719849,372.955292 
	C642.659729,345.411835 637.764465,317.964233 632.281677,290.665680 
	C627.157349,265.152527 621.064941,239.822083 614.895752,214.533890 
	C608.989075,190.321915 602.908203,166.081207 590.556702,144.094330 
	C583.611877,131.732071 575.832153,119.966591 563.056396,112.223145 
	C559.942383,110.346313 556.921326,108.772285 553.900330,107.198265 
	C553.900330,107.198273 553.818420,107.182945 554.013428,106.806580 
	C557.899597,105.869698 561.590698,105.309181 565.281860,104.748657 
	C565.670471,104.766602 566.059082,104.784554 566.976807,105.153557 
	C574.534546,108.063469 581.563049,110.622330 588.591614,113.181198 
	C588.591614,113.181198 588.768066,113.213676 588.880554,113.602493 
	C590.406738,114.911690 591.820435,115.832085 593.234131,116.752487 
	C593.234131,116.752487 593.004883,116.999245 593.165039,117.209000 
	C594.990173,118.675262 596.655273,119.931770 598.320312,121.188278 
	C598.320312,121.188286 598.619629,121.362877 598.735107,121.818741 
	C599.671875,123.073654 600.493164,123.872711 601.314453,124.671768 
	C601.314453,124.671768 600.988464,124.852882 601.162415,125.129028 
	C603.928772,128.559860 606.521179,131.714539 609.113586,134.869202 
	C609.113586,134.869217 609.048340,134.948929 609.063416,135.286713 
	C615.000122,148.693527 621.049255,161.706985 626.783081,174.857895 
	C629.203430,180.408966 630.959717,186.249573 633.017883,191.958572 
	C633.104736,192.317886 633.191650,192.677200 633.188599,193.729858 
	C635.466858,202.627625 637.834961,210.832062 640.203064,219.036514 
	C640.385681,219.477524 640.568359,219.918533 640.564453,220.967026 
	C642.590210,230.366501 644.802490,239.158508 647.014893,247.950485 
	C647.092773,248.321869 647.170593,248.693253 647.151672,249.776260 
	C648.134949,254.326889 649.215027,258.165894 650.295044,262.004883 
	C650.462097,262.454285 650.629150,262.903687 650.586060,263.950195 
	C651.037231,266.700928 651.698547,268.854523 652.359802,271.008118 
	C652.505615,271.460388 652.651428,271.912659 652.580627,272.979553 
	C654.125977,282.827881 655.819885,292.075317 657.686340,301.287811 
	C658.351990,304.573700 659.435608,307.774841 660.328491,311.014679 
	C660.468628,311.458527 660.608765,311.902405 660.529968,312.970093 
	C661.652649,320.068512 662.994263,326.543060 664.335876,333.017639 
	C664.469421,333.465302 664.602966,333.912933 664.515076,334.992432 
	C664.533264,337.898499 664.600708,340.207245 665.047913,342.439911 
	C666.025940,347.323669 667.196838,352.168823 668.288940,357.029724 
	C668.471130,357.785858 668.653381,358.541962 668.616211,359.883179 
	C668.634155,361.305359 668.871521,362.142487 669.108887,362.979614 
z"/>
<path fill="#B8C0D7" opacity="1.000000" stroke="none" 
	d="
M659.168335,489.125854 
	C662.876160,489.507629 666.583923,489.889404 670.588684,490.520111 
	C663.136230,491.450134 655.395081,492.247681 647.636108,492.792480 
	C610.647766,495.389618 573.656006,497.938538 536.662659,500.463806 
	C511.609100,502.174042 486.552246,503.837830 461.494385,505.483826 
	C434.618164,507.249329 407.740723,508.996948 380.857056,510.642365 
	C379.215973,510.742828 377.515747,509.876770 376.013489,509.189209 
	C384.142944,508.089386 392.101929,507.260742 400.724792,506.537537 
	C403.029785,506.782562 404.681610,507.119080 406.310211,507.030212 
	C417.898773,506.397797 429.485138,505.717957 441.067169,504.974762 
	C450.991302,504.337952 460.913910,503.662506 470.827972,502.886536 
	C486.350006,501.671570 501.858185,500.277100 517.383789,499.111877 
	C528.795227,498.255402 540.228271,497.690796 551.645996,496.912811 
	C569.831238,495.673645 588.005737,494.269196 606.196289,493.117584 
	C619.769226,492.258240 633.366211,491.780670 646.939941,490.932007 
	C651.037720,490.675812 655.093384,489.746704 659.168335,489.125854 
z"/>
<path fill="#B8C0D7" opacity="1.000000" stroke="none" 
	d="
M633.166626,191.685272 
	C630.959717,186.249573 629.203430,180.408966 626.783081,174.857895 
	C621.049255,161.706985 615.000122,148.693527 609.110474,135.265793 
	C612.827087,141.290833 617.278381,147.362854 620.028748,154.126480 
	C624.994019,166.336884 628.942322,178.960770 633.166626,191.685272 
z"/>
<path fill="#B8C0D7" opacity="1.000000" stroke="none" 
	d="
M660.466980,310.632629 
	C659.435608,307.774841 658.351990,304.573700 657.686340,301.287811 
	C655.819885,292.075317 654.125977,282.827881 652.598022,273.337708 
	C655.423096,285.471008 658.014282,297.860809 660.466980,310.632629 
z"/>
<path fill="#B8C0D7" opacity="1.000000" stroke="none" 
	d="
M647.156250,247.664612 
	C644.802490,239.158508 642.590210,230.366501 640.597046,221.325836 
	C642.976685,229.844360 645.137146,238.611542 647.156250,247.664612 
z"/>
<path fill="#B8C0D7" opacity="1.000000" stroke="none" 
	d="
M640.334229,218.680054 
	C637.834961,210.832062 635.466858,202.627625 633.215942,194.005951 
	C635.710632,201.833679 638.088013,210.078629 640.334229,218.680054 
z"/>
<path fill="#B8C0D7" opacity="1.000000" stroke="none" 
	d="
M588.472717,112.883118 
	C581.563049,110.622330 574.534546,108.063469 567.260498,105.224930 
	C575.156067,104.620132 581.862854,108.301208 588.472717,112.883118 
z"/>
<path fill="#B8C0D7" opacity="1.000000" stroke="none" 
	d="
M668.441467,356.643372 
	C667.196838,352.168823 666.025940,347.323669 665.047913,342.439911 
	C664.600708,340.207245 664.533264,337.898499 664.519531,335.345093 
	C666.028320,342.129578 667.311157,349.193268 668.441467,356.643372 
z"/>
<path fill="#B8C0D7" opacity="1.000000" stroke="none" 
	d="
M664.479736,332.640015 
	C662.994263,326.543060 661.652649,320.068512 660.537476,313.321472 
	C662.050415,319.453461 663.337036,325.857910 664.479736,332.640015 
z"/>
<path fill="#B8C0D7" opacity="1.000000" stroke="none" 
	d="
M680.545898,461.604675 
	C679.691284,456.903870 678.985291,451.784393 678.512207,446.362396 
	C679.394897,451.101898 680.044739,456.143951 680.545898,461.604675 
z"/>
<path fill="#B8C0D7" opacity="1.000000" stroke="none" 
	d="
M682.622070,480.617859 
	C681.766968,475.918793 681.046509,470.793121 680.568604,465.378845 
	C681.459656,470.123901 682.108215,475.157593 682.622070,480.617859 
z"/>
<path fill="#B8C0D7" opacity="1.000000" stroke="none" 
	d="
M678.592285,443.611694 
	C677.733154,438.900757 677.018616,433.768311 676.542114,428.340393 
	C677.432434,433.093292 678.084717,438.141754 678.592285,443.611694 
z"/>
<path fill="#B8C0D7" opacity="1.000000" stroke="none" 
	d="
M676.368408,490.600281 
	C677.650024,489.738434 679.332947,489.037567 681.683350,488.058777 
	C681.821960,487.078705 682.062561,485.378113 682.541016,483.389648 
	C684.525574,490.445129 684.260071,490.783569 676.368408,490.600281 
z"/>
<path fill="#B8C0D7" opacity="1.000000" stroke="none" 
	d="
M564.991760,104.520203 
	C561.590698,105.309181 557.899597,105.869698 553.982239,106.778984 
	C552.757019,107.015442 551.757996,106.903137 550.390869,106.688660 
	C554.525391,103.324730 559.515259,103.179436 564.991760,104.520203 
z"/>
<path fill="#B8C0D7" opacity="1.000000" stroke="none" 
	d="
M671.327759,377.693115 
	C670.445129,373.846619 669.748962,369.694427 669.178101,365.092529 
	C670.040344,368.891022 670.777222,373.139191 671.327759,377.693115 
z"/>
<path fill="#B8C0D7" opacity="1.000000" stroke="none" 
	d="
M650.425232,261.637573 
	C649.215027,258.165894 648.134949,254.326889 647.165466,250.060852 
	C648.369141,253.512650 649.462280,257.391479 650.425232,261.637573 
z"/>
<path fill="#B8C0D7" opacity="1.000000" stroke="none" 
	d="
M609.084045,134.523895 
	C606.521179,131.714539 603.928772,128.559860 601.331238,125.050514 
	C603.902222,127.856758 606.478333,131.017670 609.084045,134.523895 
z"/>
<path fill="#B8C0D7" opacity="1.000000" stroke="none" 
	d="
M674.600342,406.603027 
	C673.972717,404.218414 673.485840,401.422546 673.120361,398.182526 
	C673.741516,400.556152 674.241333,403.373962 674.600342,406.603027 
z"/>
<path fill="#B8C0D7" opacity="1.000000" stroke="none" 
	d="
M672.649353,388.627106 
	C672.017090,386.218719 671.522278,383.393829 671.154785,380.118805 
	C671.783569,382.515961 672.285217,385.363312 672.649353,388.627106 
z"/>
<path fill="#B8C0D7" opacity="1.000000" stroke="none" 
	d="
M676.510132,424.629913 
	C675.911133,422.536926 675.471008,420.050781 675.151001,417.130737 
	C675.737061,419.210144 676.203003,421.723450 676.510132,424.629913 
z"/>
<path fill="#B8C0D7" opacity="1.000000" stroke="none" 
	d="
M652.488770,270.656799 
	C651.698547,268.854523 651.037231,266.700928 650.606079,264.311523 
	C651.430115,266.152313 652.023987,268.228912 652.488770,270.656799 
z"/>
<path fill="#B8C0D7" opacity="1.000000" stroke="none" 
	d="
M675.318359,414.706726 
	C674.849854,413.199585 674.558777,411.410492 674.492126,409.350067 
	C674.976257,410.860748 675.235962,412.642792 675.318359,414.706726 
z"/>
<path fill="#B8C0D7" opacity="1.000000" stroke="none" 
	d="
M598.279053,120.886253 
	C596.655273,119.931770 594.990173,118.675262 593.282471,117.088135 
	C594.905823,118.033081 596.571777,119.308655 598.279053,120.886253 
z"/>
<path fill="#B8C0D7" opacity="1.000000" stroke="none" 
	d="
M673.266235,395.709167 
	C672.834229,394.500641 672.570496,393.028290 672.531494,391.301941 
	C672.982300,392.513763 673.208435,393.979553 673.266235,395.709167 
z"/>
<path fill="#B8C0D7" opacity="1.000000" stroke="none" 
	d="
M593.136963,116.442383 
	C591.820435,115.832085 590.406738,114.911690 588.930786,113.676773 
	C590.258911,114.285583 591.649353,115.208931 593.136963,116.442383 
z"/>
<path fill="#B8C0D7" opacity="1.000000" stroke="none" 
	d="
M601.260376,124.369835 
	C600.493164,123.872711 599.671875,123.073654 598.820679,121.969414 
	C599.595947,122.465454 600.401123,123.266678 601.260376,124.369835 
z"/>
<path fill="#B8C0D7" opacity="1.000000" stroke="none" 
	d="
M669.261841,362.763245 
	C668.871521,362.142487 668.634155,361.305359 668.615906,360.275085 
	C669.028259,360.903595 669.221497,361.725220 669.261841,362.763245 
z"/>
<path fill="#202020" opacity="1.000000" stroke="none" 
	d="
M659.139893,488.656860 
	C655.093384,489.746704 651.037720,490.675812 646.939941,490.932007 
	C633.366211,491.780670 619.769226,492.258240 606.196289,493.117584 
	C588.005737,494.269196 569.831238,495.673645 551.645996,496.912811 
	C540.228271,497.690796 528.795227,498.255402 517.383789,499.111877 
	C501.858185,500.277100 486.350006,501.671570 470.827972,502.886536 
	C460.913910,503.662506 450.991302,504.337952 441.067169,504.974762 
	C429.485138,505.717957 417.898773,506.397797 406.310211,507.030212 
	C404.681610,507.119080 403.029785,506.782562 401.077271,506.342010 
	C405.180634,484.553101 409.381561,463.018555 414.054169,441.586823 
	C424.236542,394.883362 437.102600,348.923401 452.914062,303.799133 
	C470.699951,253.040039 492.289307,204.081985 521.577332,158.774414 
	C532.381592,142.060562 544.285583,126.277191 560.935181,113.843056 
	C562.067810,113.224915 562.608582,112.875427 563.149414,112.525940 
	C575.832153,119.966591 583.611877,131.732071 590.556702,144.094330 
	C602.908203,166.081207 608.989075,190.321915 614.895752,214.533890 
	C621.064941,239.822083 627.157349,265.152527 632.281677,290.665680 
	C637.764465,317.964233 642.659729,345.411835 646.719849,372.955292 
	C650.005920,395.248230 651.678894,417.779236 654.055908,440.205841 
	C655.751038,456.198822 657.427002,472.193817 659.139893,488.656860 
z"/>
<path fill="#B8C0D7" opacity="1.000000" stroke="none" 
	d="
M563.056396,112.223145 
	C562.608582,112.875427 562.067810,113.224915 561.223511,113.661026 
	C558.649719,111.773064 556.379456,109.798470 554.004761,107.511063 
	C556.921326,108.772285 559.942383,110.346313 563.056396,112.223145 
z"/>
</svg>