<svg xmlns="http://www.w3.org/2000/svg" width="100%" viewBox="0 0 1020 1018" height="150" xmlns:v="https://vecta.io/nano"><path fill="#fff" d="M1021 362v657H1V1h1020v361M664.925 557.712l2.864 95.738-.725 180.345c-.239 26.775-1.36 53.542-2.181 80.31-.178 5.805-.445 11.645-1.269 17.383-1.568 10.914 3.336 21.459 12.617 27.188 10.636 6.566 22.468 7.621 34.458 8.088 1.224.048 2.495-1.098 4.523-1.838 1.299.188 2.597.377 4.245.738.369.048.738.096 2.1.155l30.252.254c13.587.943 27.025.053 39.664-5.308 11.846-5.025 20.617-13.136 21.225-27.038l4.025-101.804 1.868-80.907-.52-139.422c-.427-32.124-1.472-64.258-3.104-96.343-1.461-28.735-3.301-57.497-6.434-86.087-3.655-33.363-8.129-66.68-13.62-99.79-9.004-54.294-22.381-107.469-45.349-157.805-12.591-27.593-28.045-53.412-49.237-75.326-34.941-36.131-77.957-50.7-128.672-46.897-8.823.208-17.646.415-27.2.178l-26.747 1.428c-20.964 1.689-40.701 7.924-59.389 17.312-21.615 10.858-40.323 25.491-56.152 43.931-17.913 20.869-33.9 43.034-47.64 66.855-19.771 34.278-35.075 70.529-46.956 108.176-8.09 25.633-15.727 51.456-22.25 77.524-7.851 31.376-14.348 63.093-21.348 94.68l-12.718 54.676c-4.789.275-9.578.549-14.995.331-7.283.197-14.644-.208-21.834.714-15.943 2.045-31.244 6.126-44.562 15.912-11.49 8.442-13.506 22.048-3.457 29.304a97.31 97.31 0 0 0 19.047 10.706c13.796 5.809 28.539 7.292 43.376 7.683 1.433.038 2.892-.945 5.092-1.535.734.151 1.468.301 2.734.613.736.047 1.472.095 2.897.07.448.099.896.197 1.125 1.006-.525 2.084-1.255 4.14-1.543 6.257l-10.209 76.361-9.65 86.959c-2.325 24.935-3.615 49.967-5.296 74.961-.501 7.454-.419 14.962-1.239 22.375-1.199 10.835 2.565 19.205 11.434 25.239 11.088 7.544 23.845 8.552 36.719 8.738 1.146.016 2.307-1.072 4.249-1.702l34.753 1.37c14.592.736 29.088.12 42.488-6.346 12.044-5.812 19.674-14.925 19.6-29.274-.044-8.476.536-16.974 1.227-25.43l8.854-104.409c2.028-21.851 4.553-43.665 7.316-65.437l9.495-68.669c.483-3.635 1.961-4.668 5.395-4.853l47.327-2.947 104.076-7.011 88.604-6.342c5.928-.435 11.832-1.201 18.371-1.781.415-.034.83-.069 2.165.073 3.318-.094 6.636-.189 10.115.672z"/><path fill="#d73766" d="M299.269 879.043l-34.843-1.159-5.467-1.71c-14.222-5.067-23.644-12.982-22.154-31.617 1.155-14.443 1.353-28.963 2.569-43.399l9.626-105.975c3.585-32.919 8.401-65.705 12.7-98.546l2.608-18.439h-23.413l-1.925-.418c-1.336-.118-2.092-.113-2.849-.109-.734-.151-1.468-.301-2.949-.517l-11.657-2.372c-10.827-2.55-20.832-7.039-29.799-13.577-9.086-6.625-10.653-17.18-2.682-24.957 5.58-5.445 12.546-10.082 19.722-13.124 8.93-3.785 18.714-5.556 28.129-8.197l15.266-.828c7.394.031 13.901.286 20.376-.06 1.506-.081 3.878-1.985 4.205-3.423l18.082-81.858c11.798-55.531 25.39-110.569 44.589-164.078 19.671-54.825 46.53-105.567 84.704-150.009 25.983-30.25 57.746-50.88 96.669-60.068 8.052-1.901 16.267-3.109 24.407-4.637l27.262-.398c10.982 1.443 21.424 1.634 31.316 4.064 35.308 8.671 62.895 29.315 85.237 57.403 21.214 26.669 36.254 56.754 48.066 88.538 14.613 39.318 25.403 79.682 32.086 121.092l11.835 79.193c3.211 25.171 5.763 50.447 7.782 75.742 1.929 24.177 3.194 48.426 4.032 72.668l1.996 93.337-.65 101.411-.997 48.417-2.015 68.839-2.163 69.329c-.402 18.064-9.64 26.244-22.859 31.483-4.899 1.942-10.067 3.207-15.112 4.78l-30.064-.202c-1.023-.161-1.426-.167-1.83-.172a102.82 102.82 0 0 0-4.671-.592c-1.943-.624-3.054-1.393-4.285-1.793-14.451-4.7-23.535-14.242-22.512-31.471 1.846-31.08 3.342-62.206 3.862-93.332l.575-135.415-2.385-122.899c-.163-8.442-.024-16.89-.024-26.02l-25.068 1.31c-3.859.477-7.284 1.032-10.709 1.586-.415.034-.83.068-1.848-.176-10.553.002-20.521.005-30.451.625l-50.112 3.741-30.802 2.185-67.89 5.722c-17.541 1.307-35.123 2.057-52.685 3.078l-50.723 2.951c-2.784.15-4.157.919-4.471 3.978-.607 5.932-1.725 11.811-2.558 17.722l-5.24 37.954-4.483 38.041-5.465 45.946c-1.726 17.845-2.878 35.746-4.279 53.623-1.907 24.329-4.389 48.632-5.493 72.997-.6 13.248-6.965 21.604-17.939 26.943-6.338 3.084-13.431 4.616-20.184 6.846m299.351-757.68s-.299-.175-.382-.779c-1.666-1.276-3.332-2.551-5.233-3.585 0 0 .229-.247.035-.867l-4.272-2.919s-.176-.032-.414-.629c-6.491-4.284-13.198-7.965-21.906-7.783-.389-.018-.777-.036-1.746-.511-5.186-1.112-10.176-.967-15.449 2.443-2.114.907-4.397 1.546-6.314 2.764-13.503 8.576-24.495 19.807-33.97 32.597-16.252 21.94-30.06 45.43-41.741 70.005-11.385 23.951-22.251 48.256-31.458 73.105-10.598 28.603-20.066 57.709-28.298 87.081-8.853 31.586-15.891 63.689-23.338 95.656-3.154 13.541-5.329 27.31-8.291 41.518 1.673.416 3.373 1.282 5.014 1.182l80.637-5.159 75.168-5.02 110.973-7.671 24.102-1.962c1.41-.131 2.82-.261 5.032-.07 7.49.022 7.756-.316 6.015-8.358-.099-.453-.198-.906-.028-2.212l-1.936-15.881c-.141-.762-.283-1.524-.127-3.124l-1.932-15.816c-.105-.446-.21-.891-.026-2.18l-1.934-15.916c-.151-.75-.301-1.501-.134-3.037l-1.379-8.113c-.05-.378-.099-.757.206-1.699-.26-1.782-.519-3.564-.755-6.046-.094-.455-.187-.91 0-2.187l-1.482-9.046c-.054-.391-.107-.782.176-1.701-.226-1.466-.452-2.932-.655-5.076-.089-.442-.179-.884.007-2.159l-1.489-9.103c-.052-.37-.104-.74.216-1.721l-2.211-13.305c-.065-.368-.129-.735.112-1.535-.193-.822-.386-1.643-.579-3.249-.182-.756-.365-1.512-.242-3.041l-3.857-21.896c-.134-.448-.267-.895-.113-2.098l-3.875-19.916c-.14-.444-.28-.888-.143-2.096l-7.808-37.886c-.146-.452-.292-.905-.179-2.059-.594-2.077-1.188-4.153-1.822-6.952-.167-.449-.334-.899-.241-2.083l-3.307-12.206c-.078-.371-.156-.743.049-1.686l-6.547-27.019c-.183-.441-.365-.882-.286-2.036l-7.187-25.287c-.087-.359-.174-.719.037-1.625-4.373-12.451-8.321-25.075-13.287-37.286-2.75-6.764-7.202-12.836-10.98-19.178 0 0 .065-.08.006-.77-2.576-3.161-5.152-6.322-8.066-9.326 0 0 .326-.181.218-.785-.805-.801-1.61-1.602-2.587-2.705z"/><path fill="#e93ef2" d="M751.404 965.969c4.642-1.677 9.809-2.942 14.709-4.884 13.219-5.239 22.457-13.419 22.859-31.483l2.163-69.329 2.015-68.839.997-48.417.65-101.411c-.19-31.116-.921-62.238-1.996-93.337-.838-24.242-2.103-48.49-4.032-72.668-2.018-25.295-4.571-50.571-7.782-75.742-3.377-26.471-7.582-52.843-11.835-79.193-6.684-41.41-17.473-81.773-32.086-121.092-11.813-31.784-26.853-61.87-48.066-88.538-22.342-28.087-49.929-48.731-85.237-57.403-9.892-2.429-20.334-2.621-30.815-3.977 49.421-4.114 92.437 10.455 127.378 46.586 21.192 21.914 36.646 47.733 49.237 75.326 22.968 50.336 36.345 103.511 45.349 157.805 5.491 33.109 9.965 66.426 13.62 99.79 3.133 28.59 4.972 57.353 6.434 86.087 1.632 32.085 2.677 64.219 3.104 96.343l.52 139.422c-.106 26.972-.972 53.946-1.868 80.907l-4.025 101.804c-.608 13.902-9.379 22.013-21.225 27.038-12.639 5.362-26.077 6.251-40.068 5.204z"/><path fill="#7af8fa" d="M544.819 49.745c-7.775 1.75-15.99 2.958-24.042 4.859-38.923 9.189-70.686 29.818-96.669 60.068-38.173 44.442-65.032 95.184-84.704 150.009-19.199 53.509-32.791 108.547-44.589 164.078l-18.082 81.858c-.327 1.439-2.699 3.343-4.205 3.423-6.475.346-12.982.092-19.919-.036 3.487-18.254 7.342-36.433 11.362-54.575l21.348-94.68c6.523-26.068 14.16-51.891 22.25-77.524 11.881-37.647 27.185-73.898 46.956-108.176 13.74-23.821 29.727-45.986 47.64-66.855 15.829-18.44 34.537-33.073 56.152-43.931 18.688-9.388 38.426-15.623 59.389-17.312 8.896-.717 17.83-.966 27.112-1.206z"/><path fill="#7af9fa" d="M665.032 555.356l24.634-1.387.024 26.02 2.385 122.899-.575 135.415c-.52 31.126-2.016 62.253-3.862 93.332-1.023 17.229 8.061 26.772 22.512 31.471 1.231.4 2.343 1.169 3.896 1.868-.863.693-2.134 1.839-3.359 1.791-11.989-.468-23.822-1.523-34.458-8.088-9.281-5.729-14.185-16.274-12.617-27.188.824-5.738 1.091-11.578 1.269-17.383l2.181-80.31.725-180.345c-.141-31.916-1.858-63.825-2.876-96.447.126-1.009.17-1.322.12-1.648z"/><path fill="#e840f0" d="M299.581 879.255c6.441-2.442 13.533-3.974 19.871-7.058 10.974-5.34 17.339-13.696 17.939-26.943 1.103-24.365 3.585-48.668 5.493-72.997l4.279-53.623c1.484-15.348 3.64-30.631 5.465-45.946l4.483-38.041 5.24-37.954c.833-5.911 1.951-11.79 2.558-17.722.313-3.06 1.687-3.829 4.471-3.978l50.723-2.951 52.685-3.078 67.89-5.722 30.802-2.185 50.112-3.741c9.929-.62 19.897-.623 30.139-.642-5.624.875-11.528 1.641-17.456 2.076l-88.604 6.342-104.076 7.011-47.327 2.947c-3.434.185-4.912 1.218-5.395 4.853l-9.495 68.669c-2.763 21.772-5.288 43.586-7.316 65.437l-8.854 104.409c-.691 8.456-1.27 16.955-1.227 25.43.074 14.349-7.556 23.462-19.6 29.274-13.4 6.466-27.896 7.081-42.8 6.134z"/><path fill="#79f9fa" d="M240.786 578.553c7.581-.355 15.052-.355 23.522-.355l-2.608 18.439-12.7 98.546c-3.84 35.257-6.649 70.63-9.626 105.975-1.216 14.436-1.414 28.957-2.569 43.399-1.49 18.635 7.932 26.55 22.154 31.617 1.564.557 3.167 1.002 5.073 1.737-.834.814-1.995 1.903-3.141 1.886-12.874-.185-25.631-1.194-36.719-8.738-8.869-6.034-12.633-14.404-11.434-25.239.82-7.413.738-14.921 1.239-22.375l5.296-74.961c2.708-29.034 6.129-58.008 9.65-86.959l10.209-76.361c.288-2.116 1.018-4.173 1.653-6.612z"/><path fill="#7ef6f8" d="M236.572 514.682c-9.101 2.887-18.885 4.658-27.815 8.443-7.176 3.042-14.142 7.679-19.722 13.124-7.971 7.777-6.404 18.332 2.682 24.957 8.967 6.538 18.972 11.027 29.799 13.577 3.617.852 7.272 1.542 11.28 2.412-1.076.615-2.536 1.597-3.968 1.56-14.836-.39-29.58-1.873-43.376-7.683a97.31 97.31 0 0 1-19.047-10.706c-10.05-7.257-8.033-20.862 3.457-29.304 13.318-9.786 28.619-13.867 44.562-15.912 7.19-.922 14.551-.517 22.148-.468z"/><path fill="#e840f0" d="M664.599 555.278c.483.403.439.716.233 1.247-3.386.326-6.704.42-10.482.427 2.965-.642 6.39-1.197 10.249-1.674z"/><path fill="#7ef6f8" d="M236.388 577.752c.49-.085 1.246-.09 2.238.064-.5.111-1.236.064-2.238-.064z"/><path fill="#7af9fa" d="M719.281 965.577c.229-.081.632-.075 1.158.08-.246.102-.615.054-1.158-.08z"/><path fill="#e93ef2" d="M376.184 508.918c2.62-13.665 4.795-27.434 7.95-40.975 7.446-31.967 14.485-64.07 23.338-95.656 8.232-29.372 17.7-58.478 28.298-87.081 9.207-24.849 20.074-49.154 31.458-73.105 11.682-24.575 25.489-48.066 41.741-70.005 9.474-12.79 20.466-24.021 33.97-32.597 1.917-1.217 4.2-1.857 7.067-2.736 1.752.14 2.751.252 3.781.392.031.028.113.043.218.356 2.375 2.287 4.645 4.262 6.627 6.419-16.346 12.348-28.25 28.131-39.054 44.845-29.288 45.308-50.877 94.266-68.663 145.025-15.811 45.124-28.678 91.084-38.86 137.788l-13.641 64.65-24.229 2.681z"/><path fill="#79f9fa" d="M669.109 362.98c.065.368.129.735.069 1.833.571 4.882 1.267 9.034 1.963 13.187.052.37.104.74.021 1.84.36 3.555.854 6.38 1.349 9.205.089.442.179.884.031 1.919.027 2.066.291 3.538.555 5.01.054.391.107.782.031 1.913.357 3.536.844 6.332 1.331 9.128.094.455.187.91.045 1.986.055 2.41.346 4.199.637 5.988.05.378.099.757.019 1.856.311 3.207.751 5.693 1.191 8.179.151.75.301 1.501.203 2.932.465 5.813 1.179 10.946 1.894 16.078.105.446.21.891.073 1.984.464 5.767 1.17 10.886 1.876 16.006.141.762.283 1.524.176 2.965.473 5.804 1.193 10.93 1.914 16.056.099.453.198.906.057 1.996-.482 2.338-.722 4.038-.861 5.018l-5.716 2.38c-1.41.131-2.82.261-4.952.112-4.431-.662-8.138-1.043-11.875-1.894l-5.084-48.451c-2.377-22.427-4.05-44.958-7.336-67.251-4.06-27.543-8.955-54.991-14.438-82.29-5.124-25.513-11.217-50.844-17.386-76.132-5.907-24.212-11.988-48.453-24.339-70.44-6.945-12.362-14.725-24.128-27.5-31.871-3.114-1.877-6.135-3.451-9.156-5.025 0 0-.082-.015.113-.392 3.886-.937 7.577-1.497 11.268-2.058.389.018.777.036 1.695.405l21.615 8.028s.176.032.289.421c1.526 1.309 2.94 2.23 4.354 3.15 0 0-.229.247-.069.457 1.825 1.466 3.49 2.723 5.155 3.979 0 0 .299.175.415.63.937 1.255 1.758 2.054 2.579 2.853 0 0-.326.181-.152.457l7.951 9.74c0 0-.065.08-.05.418l17.72 39.571c2.42 5.551 4.177 11.392 6.235 17.101.087.359.174.719.171 1.771 2.278 8.898 4.646 17.102 7.014 25.307.183.441.365.882.361 1.931 2.026 9.399 4.238 18.191 6.45 26.983.078.371.156.743.137 1.826.983 4.551 2.063 8.39 3.143 12.229.167.449.334.899.291 1.945.451 2.751 1.112 4.904 1.774 7.058.146.452.292.905.221 1.971 1.545 9.848 3.239 19.096 5.106 28.308.666 3.286 1.749 6.487 2.642 9.727.14.444.28.888.201 1.955 1.123 7.098 2.464 13.573 3.806 20.048.134.448.267.895.179 1.975.018 2.906.086 5.215.533 7.447.978 4.884 2.149 9.729 3.241 14.59.182.756.364 1.512.327 2.853.018 1.422.255 2.259.493 3.096z"/><path d="M659.168 489.126c3.708.382 7.416.764 11.42 1.394-7.452.93-15.194 1.728-22.953 2.272l-110.973 7.671-75.168 5.02-80.637 5.159c-1.641.1-3.341-.766-4.844-1.453 8.129-1.1 16.088-1.928 24.711-2.652 2.305.245 3.957.582 5.585.493l34.757-2.055 29.761-2.088 46.556-3.775 34.262-2.199 54.55-3.795 40.744-2.186c4.098-.256 8.153-1.185 12.228-1.806zm-26.001-297.441c-2.207-5.436-3.963-11.276-6.384-16.827l-17.673-39.592c3.717 6.025 8.168 12.097 10.918 18.861 4.965 12.21 8.914 24.834 13.138 37.559zm27.3 118.948c-1.031-2.858-2.115-6.059-2.781-9.345a703.72 703.72 0 0 1-5.088-27.95c2.825 12.133 5.416 24.523 7.869 37.295zm-13.311-62.968c-2.354-8.506-4.566-17.298-6.559-26.339 2.38 8.519 4.54 17.286 6.559 26.339zm-6.822-28.985c-2.499-7.848-4.867-16.052-7.118-24.674 2.495 7.828 4.872 16.073 7.118 24.674zm-51.861-105.797c-6.91-2.261-13.938-4.82-21.212-7.658 7.896-.605 14.602 3.076 21.212 7.658zm79.968 243.76a200.51 200.51 0 0 1-3.394-14.203c-.447-2.233-.515-4.541-.528-7.095 1.509 6.784 2.792 13.848 3.922 21.298zm-3.961-24.003a262.92 262.92 0 0 1-3.942-19.319c1.513 6.132 2.8 12.536 3.942 19.319zm16.066 128.965c-.855-4.701-1.561-9.82-2.034-15.242.883 4.74 1.533 9.782 2.034 15.242zm2.076 19.013c-.855-4.699-1.576-9.825-2.053-15.239.891 4.745 1.54 9.779 2.053 15.239zm-4.03-37.006a166.52 166.52 0 0 1-2.05-15.271c.89 4.753 1.543 9.801 2.05 15.271zm-2.224 46.988c1.282-.862 2.965-1.563 5.315-2.542l.858-4.669c1.985 7.055 1.719 7.394-6.173 7.211zM564.992 104.52c-3.401.789-7.092 1.349-11.01 2.259-1.225.236-2.224.124-3.591-.09 4.135-3.364 9.124-3.509 14.601-2.168zm106.336 273.173c-.883-3.846-1.579-7.999-2.15-12.601.862 3.798 1.599 8.047 2.15 12.601zm-20.903-116.055c-1.21-3.472-2.29-7.311-3.26-11.577 1.204 3.452 2.297 7.331 3.26 11.577zm-41.341-127.114c-2.563-2.809-5.155-5.964-7.753-9.473 2.571 2.806 5.147 5.967 7.753 9.473zM674.6 406.603c-.628-2.385-1.115-5.18-1.48-8.421.621 2.374 1.121 5.191 1.48 8.421zm-1.951-17.976c-.632-2.408-1.127-5.233-1.495-8.508.629 2.397 1.13 5.245 1.495 8.508zm3.861 36.003c-.599-2.093-1.039-4.579-1.359-7.499.586 2.079 1.052 4.593 1.359 7.499zm-24.021-153.973c-.79-1.802-1.452-3.956-1.883-6.345.824 1.841 1.418 3.917 1.883 6.345zm22.829 144.05c-.469-1.507-.76-3.296-.826-5.357.484 1.511.744 3.293.826 5.357zm-77.039-293.821c-1.624-.954-3.289-2.211-4.997-3.798 1.623.945 3.289 2.221 4.997 3.798zm74.987 274.823c-.432-1.209-.696-2.681-.735-4.407.451 1.212.677 2.678.735 4.407zm-80.129-279.267c-1.317-.61-2.73-1.531-4.206-2.766 1.328.609 2.719 1.532 4.206 2.766zm8.123 7.928c-.767-.497-1.589-1.296-2.44-2.4.775.496 1.58 1.297 2.44 2.4zm68.002 238.393c-.39-.621-.628-1.458-.646-2.488.412.629.606 1.45.646 2.488z" fill="#b8c0d7"/><path fill="#feffff" d="M659.14 488.657c-4.047 1.09-8.102 2.019-12.2 2.275l-40.744 2.186-54.55 3.795-34.262 2.199-46.556 3.775-29.761 2.088-34.757 2.055c-1.629.089-3.28-.248-5.233-.688l12.977-64.755c10.182-46.703 23.048-92.663 38.86-137.788 17.786-50.759 39.375-99.717 68.663-145.025 10.804-16.714 22.708-32.497 39.358-44.931 1.133-.618 1.673-.968 2.214-1.317 12.683 7.441 20.462 19.206 27.407 31.568 12.352 21.987 18.432 46.228 24.339 70.44l17.386 76.132c5.483 27.299 10.378 54.746 14.438 82.29 3.286 22.293 4.959 44.824 7.336 67.251l5.084 48.451z"/><path fill="#b8c0d7" d="M563.056 112.223c-.448.652-.989 1.002-1.833 1.438-2.574-1.888-4.844-3.863-7.219-6.15 2.917 1.261 5.938 2.835 9.052 4.712z"/></svg>